<?xml version="1.0" encoding="utf-8"?>
<!-- Generator: Adobe Illustrator 16.0.0, SVG Export Plug-In . SVG Version: 6.00 Build 0)  -->
<!DOCTYPE svg PUBLIC "-//W3C//DTD SVG 1.1//EN" "http://www.w3.org/Graphics/SVG/1.1/DTD/svg11.dtd">
<svg version="1.1" id="Layer_1" xmlns="http://www.w3.org/2000/svg" xmlns:xlink="http://www.w3.org/1999/xlink" x="0px" y="0px"
	 width="500px" height="500px" viewBox="0 0 500 500" enable-background="new 0 0 500 500" xml:space="preserve">
<linearGradient id="SVGID_1_" gradientUnits="userSpaceOnUse" x1="72.2329" y1="249.2178" x2="427.7676" y2="249.2178">
	<stop  offset="0" style="stop-color:#21409A"/>
	<stop  offset="1" style="stop-color:#7F3F98"/>
</linearGradient>
<path fill="url(#SVGID_1_)" d="M427.768,71.451H250c-98.175,0-177.767,79.591-177.767,177.763
	c0,98.183,79.591,177.771,177.767,177.771c94.29,0,171.383-73.416,177.358-166.201l0.359,0.387l0.002-10.002
	c0-0.646,0.049-1.299,0.049-1.954c0-0.636-0.039-1.264-0.049-1.902L427.768,71.451z M352.355,105.623h31.535h10.922v149.194
	l-42.457-42.45v-64.281h-64.283l-42.454-42.463H352.355z M380.721,317.932c-24.445,44.834-71.998,75.244-126.648,75.244
	c-79.621,0-144.163-64.547-144.163-144.166c0-54.66,30.416-102.206,75.242-126.652c13.678-7.458,28.707-12.729,44.612-15.432
	l41.554,41.538c-5.611-0.951-11.367-1.478-17.244-1.478c-13.146,0-25.697,2.52-37.249,7.051
	c-37.916,14.876-64.768,51.774-64.768,94.973c0,56.349,45.674,102.023,102.017,102.023c43.193,0,80.098-26.859,94.977-64.775
	l-61.387-61.386h60.051l6.896,6.905l41.553,41.543C393.457,289.229,388.182,304.256,380.721,317.932z"/>
</svg>
